<svg version="1.1" id="Layer_1" xmlns="http://www.w3.org/2000/svg" xmlns:xlink="http://www.w3.org/1999/xlink" x="0px" y="0px"
	 width="100%" viewBox="0 0 592 592" enable-background="new 0 0 592 592" xml:space="preserve">
<path fill="#000000" opacity="1.000000" stroke="none" 
	d="
M48.228806,270.423035 
	C54.114132,257.467468 53.452194,243.711014 55.578995,230.475418 
	C62.969372,184.483231 82.927979,145.059219 117.401550,113.545906 
	C154.048157,80.046158 197.129578,58.755081 245.764420,49.203247 
	C288.793304,40.752422 330.807068,44.607277 371.589783,61.394661 
	C382.788788,66.004501 394.853394,68.401726 406.018677,73.275505 
	C484.498718,107.532990 534.818726,165.797714 555.435791,249.142380 
	C563.490112,281.702057 564.117371,314.593506 558.656006,347.696503 
	C557.251648,356.209015 558.232056,364.963593 557.467590,373.621521 
	C554.387329,408.505219 542.312012,439.576813 519.516785,466.343567 
	C499.544037,489.796234 474.586060,506.271454 446.689453,518.698730 
	C432.242310,525.134521 418.883972,533.788635 404.039581,539.452637 
	C382.952301,547.498840 361.319183,552.950134 338.838440,555.533203 
	C321.693756,557.503052 304.600189,557.963745 287.515381,556.206482 
	C246.617523,551.999878 208.639984,539.254639 174.016510,516.741760 
	C164.819778,510.761871 154.807159,506.051056 145.458206,500.288635 
	C107.140396,476.670349 76.670166,445.675323 57.327660,404.619934 
	C44.707409,377.832855 38.862587,349.444946 39.880836,319.856232 
	C40.453659,303.210938 43.287983,286.806946 48.228806,270.423035 
M168.539780,137.098099 
	C144.417603,150.725388 122.785889,167.544449 104.077362,187.990875 
	C94.521027,198.434921 85.781204,209.247925 81.058510,223.196884 
	C71.174095,252.391479 66.097557,282.141968 67.170448,312.960449 
	C67.529564,323.275604 67.555344,333.601257 70.687660,343.579163 
	C76.283531,361.404541 83.149750,378.697052 91.686852,395.351044 
	C112.041756,435.058990 140.425293,467.619812 177.913452,491.903625 
	C213.940948,515.241150 253.155106,527.449890 296.539307,524.879761 
	C323.421753,523.287231 348.619659,516.147888 372.465973,503.847809 
	C374.434814,502.832245 376.332367,501.433746 379.174500,501.643219 
	C378.622925,502.450867 378.440430,502.966370 378.076263,503.207336 
	C376.689606,504.124725 375.290192,505.042633 373.814178,505.802307 
	C341.643494,522.360657 307.797302,531.004028 271.319000,528.467651 
	C248.466980,526.878784 226.593231,521.642517 205.712479,512.498596 
	C160.226089,492.579681 125.097878,460.590332 98.212585,419.168915 
	C97.003113,417.305511 96.137901,415.064056 93.608002,413.950684 
	C93.500420,414.778961 93.264473,415.311188 93.409966,415.701141 
	C93.989960,417.255737 94.586624,418.819855 95.358879,420.284607 
	C106.872246,442.122589 121.373161,461.808075 139.041214,479.004517 
	C153.369080,492.949982 168.162140,506.270233 187.257599,513.932617 
	C232.321518,532.015198 278.954956,539.605591 327.434143,537.021362 
	C353.608398,535.626221 379.450195,532.458130 404.744537,525.572327 
	C416.920471,522.257751 429.432495,519.527588 440.275940,512.648071 
	C486.688385,483.202087 519.918213,442.844635 539.430481,391.431793 
	C547.135559,371.129639 553.227173,350.594910 549.682861,328.187866 
	C543.944458,291.910156 534.334106,256.957306 517.064575,224.384079 
	C494.715637,182.230240 463.600311,148.456772 420.924225,126.365768 
	C371.647369,100.857956 319.142639,95.952553 264.977509,103.820923 
	C231.014786,108.754585 199.129822,119.993279 168.539780,137.098099 
M156.968063,116.486603 
	C137.248199,132.841797 120.004593,151.351898 106.901131,173.491211 
	C109.839478,171.725403 112.371315,169.589890 114.800461,167.343323 
	C132.645218,150.839783 152.371155,136.951050 174.012161,125.967476 
	C227.076385,99.035507 283.222321,88.806427 342.434052,95.569565 
	C374.785767,99.264786 405.288116,108.711380 433.341400,125.240173 
	C490.600800,158.977036 524.627380,210.407486 544.330505,272.531311 
	C548.334412,285.155640 551.184082,298.083252 554.297974,310.936584 
	C555.807739,262.639740 543.694824,217.933762 518.168335,176.978455 
	C492.537262,135.855194 457.691956,105.022591 413.549530,84.876778 
	C419.754608,90.742432 426.852234,95.664803 431.941284,102.679565 
	C427.201721,99.520729 422.914032,95.850906 418.437897,92.427460 
	C410.108337,86.056824 402.007263,79.039528 392.022003,75.539268 
	C350.950806,61.142082 308.867889,58.174683 266.097870,65.911880 
	C225.620026,73.234413 189.571106,90.351364 156.968063,116.486603 
M269.680756,57.844143 
	C292.388885,54.128983 315.231812,53.919540 338.170898,55.217644 
	C331.117737,53.415249 324.078705,51.958241 316.852844,51.011868 
	C293.479401,47.950630 270.374207,49.448559 247.384766,54.001770 
	C213.953827,60.622986 183.328888,74.052864 154.751846,92.422997 
	C113.355408,119.033821 83.605293,154.766708 68.770485,202.160278 
	C65.400902,212.925278 62.622715,223.841660 62.087200,235.240341 
	C67.821930,222.895432 77.052498,212.707062 82.744873,200.424759 
	C102.566940,157.655151 132.177368,123.168518 171.165405,96.824532 
	C200.834656,76.777191 233.603348,64.236740 269.680756,57.844143 
M79.465614,403.932861 
	C78.220093,400.845398 76.954842,397.765717 75.732132,394.669250 
	C64.384956,365.933136 61.761623,335.235840 55.704624,305.312408 
	C54.948639,301.577637 55.027824,297.670685 54.231670,293.947968 
	C53.475571,290.412567 54.282677,286.610291 52.226398,282.563629 
	C43.755451,319.216003 45.625164,354.483429 58.389542,389.236847 
	C72.618576,427.978180 106.775581,465.732178 123.039719,473.743439 
	C114.672028,463.002380 106.192238,452.347412 98.935471,440.801575 
	C91.651352,429.212189 85.202019,417.193146 79.465614,403.932861 
M265.035706,541.734070 
	C258.163330,541.359985 251.465271,538.778381 243.141083,539.447388 
	C268.579651,552.230774 347.070465,553.177124 372.161072,541.220337 
	C364.051086,541.651123 356.795471,541.718872 349.612213,542.474243 
	C321.681396,545.411499 293.793640,545.086731 265.035706,541.734070 
M511.625519,457.086548 
	C504.119232,467.212921 495.374115,476.296753 487.496246,486.052490 
	C519.016296,462.812164 539.089478,432.147034 547.007324,393.637512 
	C537.844666,415.970917 526.651550,437.189148 511.625519,457.086548 
M59.296925,271.430695 
	C59.408962,275.158234 59.029377,278.943848 60.456020,283.015991 
	C62.087360,269.168243 64.335411,255.961792 67.196907,242.849487 
	C62.269108,251.429581 57.928673,260.148987 59.296925,271.430695 
z"/>
</svg>